<svg width="32" height="32" viewBox="0 0 32 32" fill="none" xmlns="http://www.w3.org/2000/svg">
<path fill-rule="evenodd" clip-rule="evenodd" d="M12.0409 22.0817C17.5863 22.0817 22.0817 17.5863 22.0817 12.0409C22.0817 6.49545 17.5863 2 12.0409 2C6.49545 2 2 6.49545 2 12.0409C2 17.5863 6.49545 22.0817 12.0409 22.0817ZM12.0409 24.0817C18.6908 24.0817 24.0817 18.6908 24.0817 12.0409C24.0817 5.39088 18.6908 0 12.0409 0C5.39088 0 0 5.39088 0 12.0409C0 18.6908 5.39088 24.0817 12.0409 24.0817Z" fill="#697477"/>
<path fill-rule="evenodd" clip-rule="evenodd" d="M19.2504 19.2616C19.6409 18.871 20.2741 18.871 20.6646 19.2616L31.6779 30.2748C32.0684 30.6654 32.0684 31.2985 31.6779 31.6891C31.2874 32.0796 30.6542 32.0796 30.2637 31.6891L19.2504 20.6758C18.8599 20.2852 18.8599 19.6521 19.2504 19.2616Z" fill="#697477"/>
</svg>
